<mxfile host="app.diagrams.net" modified="2023-08-17T07:27:53.188Z" agent="Mozilla/5.0 (X11; Linux x86_64) AppleWebKit/537.36 (KHTML, like Gecko) Chrome/115.0.0.0 Safari/537.36" etag="r4VlH8QXy7bX5hFtXqwJ" version="21.6.8" type="device" pages="3">
  <diagram name="Page-1" id="d59C5zg_7T1TeNgBpkGo">
    <mxGraphModel dx="879" dy="594" grid="1" gridSize="10" guides="1" tooltips="1" connect="1" arrows="1" fold="1" page="1" pageScale="1" pageWidth="1100" pageHeight="850" math="0" shadow="0">
      <root>
        <mxCell id="0" />
        <mxCell id="1" parent="0" />
        <mxCell id="HXuZYWFXMnalEL0bIfrd-1" value="" style="rounded=0;whiteSpace=wrap;html=1;" vertex="1" parent="1">
          <mxGeometry x="80" y="50" width="320" height="530" as="geometry" />
        </mxCell>
        <mxCell id="HXuZYWFXMnalEL0bIfrd-2" value="" style="rounded=0;whiteSpace=wrap;html=1;" vertex="1" parent="1">
          <mxGeometry x="400" y="50" width="640" height="530" as="geometry" />
        </mxCell>
        <mxCell id="HXuZYWFXMnalEL0bIfrd-3" value="main thread" style="shape=hexagon;perimeter=hexagonPerimeter2;whiteSpace=wrap;html=1;fixedSize=1;fontFamily=Ubuntu;fontSource=https%3A%2F%2Ffonts.googleapis.com%2Fcss%3Ffamily%3DUbuntu;fontSize=17;" vertex="1" parent="1">
          <mxGeometry x="180" y="10" width="120" height="30" as="geometry" />
        </mxCell>
        <mxCell id="HXuZYWFXMnalEL0bIfrd-4" value="STACK" style="text;html=1;strokeColor=none;fillColor=none;align=center;verticalAlign=middle;whiteSpace=wrap;rounded=0;fontFamily=Ubuntu;fontSource=https%3A%2F%2Ffonts.googleapis.com%2Fcss%3Ffamily%3DUbuntu;fontSize=16;fontStyle=1" vertex="1" parent="1">
          <mxGeometry x="200" y="590" width="60" height="30" as="geometry" />
        </mxCell>
        <mxCell id="HXuZYWFXMnalEL0bIfrd-5" value="HEAP" style="text;html=1;strokeColor=none;fillColor=none;align=center;verticalAlign=middle;whiteSpace=wrap;rounded=0;fontFamily=Ubuntu;fontSource=https%3A%2F%2Ffonts.googleapis.com%2Fcss%3Ffamily%3DUbuntu;fontSize=16;fontStyle=1" vertex="1" parent="1">
          <mxGeometry x="510" y="590" width="60" height="30" as="geometry" />
        </mxCell>
        <mxCell id="HXuZYWFXMnalEL0bIfrd-6" value="" style="rounded=0;whiteSpace=wrap;html=1;fillColor=#d5e8d4;strokeColor=#82b366;strokeWidth=10;" vertex="1" parent="1">
          <mxGeometry x="80" y="500" width="320" height="80" as="geometry" />
        </mxCell>
        <mxCell id="HXuZYWFXMnalEL0bIfrd-7" value="main()" style="text;html=1;strokeColor=#82b366;fillColor=#d5e8d4;align=center;verticalAlign=middle;whiteSpace=wrap;rounded=0;fontFamily=Ubuntu;fontSource=https%3A%2F%2Ffonts.googleapis.com%2Fcss%3Ffamily%3DUbuntu;fontSize=17;rotation=-90;" vertex="1" parent="1">
          <mxGeometry x="6.88" y="526.88" width="86.25" height="30" as="geometry" />
        </mxCell>
        <mxCell id="HXuZYWFXMnalEL0bIfrd-14" style="edgeStyle=orthogonalEdgeStyle;rounded=0;orthogonalLoop=1;jettySize=auto;html=1;entryX=0;entryY=0.5;entryDx=0;entryDy=0;" edge="1" parent="1" source="HXuZYWFXMnalEL0bIfrd-8" target="HXuZYWFXMnalEL0bIfrd-12">
          <mxGeometry relative="1" as="geometry" />
        </mxCell>
        <mxCell id="HXuZYWFXMnalEL0bIfrd-8" value="String[] args = 0xAF10" style="rounded=0;whiteSpace=wrap;html=1;fontFamily=Ubuntu;fontSource=https%3A%2F%2Ffonts.googleapis.com%2Fcss%3Ffamily%3DUbuntu;fontSize=17;" vertex="1" parent="1">
          <mxGeometry x="80" y="500" width="320" height="40" as="geometry" />
        </mxCell>
        <mxCell id="HXuZYWFXMnalEL0bIfrd-9" value="..." style="rounded=0;whiteSpace=wrap;html=1;fontFamily=Ubuntu;fontSource=https%3A%2F%2Ffonts.googleapis.com%2Fcss%3Ffamily%3DUbuntu;fontSize=17;" vertex="1" parent="1">
          <mxGeometry x="80" y="540" width="320" height="40" as="geometry" />
        </mxCell>
        <mxCell id="HXuZYWFXMnalEL0bIfrd-10" value="" style="rounded=0;whiteSpace=wrap;html=1;" vertex="1" parent="1">
          <mxGeometry x="490" y="240" width="20" height="40" as="geometry" />
        </mxCell>
        <mxCell id="HXuZYWFXMnalEL0bIfrd-11" value="int length = 0" style="rounded=0;whiteSpace=wrap;html=1;fontSize=18;fontFamily=Ubuntu;fontSource=https%3A%2F%2Ffonts.googleapis.com%2Fcss%3Ffamily%3DUbuntu;" vertex="1" parent="1">
          <mxGeometry x="490" y="280" width="140" height="40" as="geometry" />
        </mxCell>
        <mxCell id="HXuZYWFXMnalEL0bIfrd-12" value="0xAF10" style="rounded=0;whiteSpace=wrap;html=1;fontFamily=Ubuntu;fontSource=https%3A%2F%2Ffonts.googleapis.com%2Fcss%3Ffamily%3DUbuntu;fontSize=17;fillColor=#dae8fc;strokeColor=#6c8ebf;" vertex="1" parent="1">
          <mxGeometry x="490" y="210" width="140" height="30" as="geometry" />
        </mxCell>
        <mxCell id="HXuZYWFXMnalEL0bIfrd-13" value="..." style="rounded=0;whiteSpace=wrap;html=1;fontSize=18;fontFamily=Ubuntu;fontSource=https%3A%2F%2Ffonts.googleapis.com%2Fcss%3Ffamily%3DUbuntu;" vertex="1" parent="1">
          <mxGeometry x="490" y="320" width="140" height="40" as="geometry" />
        </mxCell>
        <mxCell id="HXuZYWFXMnalEL0bIfrd-15" value="" style="rounded=0;whiteSpace=wrap;html=1;fillColor=#e1d5e7;strokeColor=#9673a6;strokeWidth=10;" vertex="1" parent="1">
          <mxGeometry x="80" y="370" width="320" height="120" as="geometry" />
        </mxCell>
        <mxCell id="HXuZYWFXMnalEL0bIfrd-16" value="myMethod()" style="text;html=1;strokeColor=#9673a6;fillColor=#e1d5e7;align=center;verticalAlign=middle;whiteSpace=wrap;rounded=0;fontFamily=Ubuntu;fontSource=https%3A%2F%2Ffonts.googleapis.com%2Fcss%3Ffamily%3DUbuntu;fontSize=17;rotation=-90;" vertex="1" parent="1">
          <mxGeometry x="-5.62" y="411.88" width="111.25" height="30" as="geometry" />
        </mxCell>
        <mxCell id="HXuZYWFXMnalEL0bIfrd-17" value="int count = 2" style="rounded=0;whiteSpace=wrap;html=1;fontFamily=Ubuntu;fontSource=https%3A%2F%2Ffonts.googleapis.com%2Fcss%3Ffamily%3DUbuntu;fontSize=17;" vertex="1" parent="1">
          <mxGeometry x="80" y="370" width="320" height="40" as="geometry" />
        </mxCell>
        <mxCell id="HXuZYWFXMnalEL0bIfrd-18" value="int i = 0 -&amp;gt; 1 -&amp;gt; 2" style="rounded=0;whiteSpace=wrap;html=1;fontFamily=Ubuntu;fontSource=https%3A%2F%2Ffonts.googleapis.com%2Fcss%3Ffamily%3DUbuntu;fontSize=17;" vertex="1" parent="1">
          <mxGeometry x="80" y="410" width="320" height="40" as="geometry" />
        </mxCell>
        <mxCell id="HXuZYWFXMnalEL0bIfrd-19" value="..." style="rounded=0;whiteSpace=wrap;html=1;fontFamily=Ubuntu;fontSource=https%3A%2F%2Ffonts.googleapis.com%2Fcss%3Ffamily%3DUbuntu;fontSize=17;" vertex="1" parent="1">
          <mxGeometry x="80" y="450" width="320" height="40" as="geometry" />
        </mxCell>
      </root>
    </mxGraphModel>
  </diagram>
  <diagram name="Page-2" id="jDRWT7dZTfvX9DMBAsyt">
    <mxGraphModel dx="879" dy="594" grid="1" gridSize="10" guides="1" tooltips="1" connect="1" arrows="1" fold="1" page="1" pageScale="1" pageWidth="1100" pageHeight="850" math="0" shadow="0">
      <root>
        <mxCell id="pczT1-cu_U-hx5-ardYg-0" />
        <mxCell id="pczT1-cu_U-hx5-ardYg-1" parent="pczT1-cu_U-hx5-ardYg-0" />
        <mxCell id="pczT1-cu_U-hx5-ardYg-2" value="" style="rounded=0;whiteSpace=wrap;html=1;" vertex="1" parent="pczT1-cu_U-hx5-ardYg-1">
          <mxGeometry x="80" y="50" width="320" height="530" as="geometry" />
        </mxCell>
        <mxCell id="pczT1-cu_U-hx5-ardYg-3" value="" style="rounded=0;whiteSpace=wrap;html=1;" vertex="1" parent="pczT1-cu_U-hx5-ardYg-1">
          <mxGeometry x="400" y="50" width="640" height="530" as="geometry" />
        </mxCell>
        <mxCell id="pczT1-cu_U-hx5-ardYg-4" value="main thread" style="shape=hexagon;perimeter=hexagonPerimeter2;whiteSpace=wrap;html=1;fixedSize=1;fontFamily=Ubuntu;fontSource=https%3A%2F%2Ffonts.googleapis.com%2Fcss%3Ffamily%3DUbuntu;fontSize=17;" vertex="1" parent="pczT1-cu_U-hx5-ardYg-1">
          <mxGeometry x="180" y="10" width="120" height="30" as="geometry" />
        </mxCell>
        <mxCell id="pczT1-cu_U-hx5-ardYg-5" value="STACK" style="text;html=1;strokeColor=none;fillColor=none;align=center;verticalAlign=middle;whiteSpace=wrap;rounded=0;fontFamily=Ubuntu;fontSource=https%3A%2F%2Ffonts.googleapis.com%2Fcss%3Ffamily%3DUbuntu;fontSize=16;fontStyle=1" vertex="1" parent="pczT1-cu_U-hx5-ardYg-1">
          <mxGeometry x="200" y="590" width="60" height="30" as="geometry" />
        </mxCell>
        <mxCell id="pczT1-cu_U-hx5-ardYg-6" value="HEAP" style="text;html=1;strokeColor=none;fillColor=none;align=center;verticalAlign=middle;whiteSpace=wrap;rounded=0;fontFamily=Ubuntu;fontSource=https%3A%2F%2Ffonts.googleapis.com%2Fcss%3Ffamily%3DUbuntu;fontSize=16;fontStyle=1" vertex="1" parent="pczT1-cu_U-hx5-ardYg-1">
          <mxGeometry x="510" y="590" width="60" height="30" as="geometry" />
        </mxCell>
        <mxCell id="pczT1-cu_U-hx5-ardYg-7" value="" style="rounded=0;whiteSpace=wrap;html=1;fillColor=#d5e8d4;strokeColor=#82b366;strokeWidth=10;" vertex="1" parent="pczT1-cu_U-hx5-ardYg-1">
          <mxGeometry x="80" y="500" width="320" height="80" as="geometry" />
        </mxCell>
        <mxCell id="pczT1-cu_U-hx5-ardYg-8" value="main()" style="text;html=1;strokeColor=#82b366;fillColor=#d5e8d4;align=center;verticalAlign=middle;whiteSpace=wrap;rounded=0;fontFamily=Ubuntu;fontSource=https%3A%2F%2Ffonts.googleapis.com%2Fcss%3Ffamily%3DUbuntu;fontSize=17;rotation=-90;" vertex="1" parent="pczT1-cu_U-hx5-ardYg-1">
          <mxGeometry x="6.88" y="526.88" width="86.25" height="30" as="geometry" />
        </mxCell>
        <mxCell id="pczT1-cu_U-hx5-ardYg-9" style="edgeStyle=orthogonalEdgeStyle;rounded=0;orthogonalLoop=1;jettySize=auto;html=1;entryX=0;entryY=0.5;entryDx=0;entryDy=0;" edge="1" parent="pczT1-cu_U-hx5-ardYg-1" source="pczT1-cu_U-hx5-ardYg-10" target="pczT1-cu_U-hx5-ardYg-14">
          <mxGeometry relative="1" as="geometry" />
        </mxCell>
        <mxCell id="pczT1-cu_U-hx5-ardYg-10" value="String[] args = 0xAF10" style="rounded=0;whiteSpace=wrap;html=1;fontFamily=Ubuntu;fontSource=https%3A%2F%2Ffonts.googleapis.com%2Fcss%3Ffamily%3DUbuntu;fontSize=17;" vertex="1" parent="pczT1-cu_U-hx5-ardYg-1">
          <mxGeometry x="80" y="500" width="320" height="40" as="geometry" />
        </mxCell>
        <mxCell id="pczT1-cu_U-hx5-ardYg-11" value="..." style="rounded=0;whiteSpace=wrap;html=1;fontFamily=Ubuntu;fontSource=https%3A%2F%2Ffonts.googleapis.com%2Fcss%3Ffamily%3DUbuntu;fontSize=17;" vertex="1" parent="pczT1-cu_U-hx5-ardYg-1">
          <mxGeometry x="80" y="540" width="320" height="40" as="geometry" />
        </mxCell>
        <mxCell id="pczT1-cu_U-hx5-ardYg-12" value="" style="rounded=0;whiteSpace=wrap;html=1;" vertex="1" parent="pczT1-cu_U-hx5-ardYg-1">
          <mxGeometry x="490" y="240" width="20" height="40" as="geometry" />
        </mxCell>
        <mxCell id="pczT1-cu_U-hx5-ardYg-13" value="int length = 0" style="rounded=0;whiteSpace=wrap;html=1;fontSize=18;fontFamily=Ubuntu;fontSource=https%3A%2F%2Ffonts.googleapis.com%2Fcss%3Ffamily%3DUbuntu;" vertex="1" parent="pczT1-cu_U-hx5-ardYg-1">
          <mxGeometry x="490" y="280" width="140" height="40" as="geometry" />
        </mxCell>
        <mxCell id="pczT1-cu_U-hx5-ardYg-14" value="0xAF10" style="rounded=0;whiteSpace=wrap;html=1;fontFamily=Ubuntu;fontSource=https%3A%2F%2Ffonts.googleapis.com%2Fcss%3Ffamily%3DUbuntu;fontSize=17;fillColor=#dae8fc;strokeColor=#6c8ebf;" vertex="1" parent="pczT1-cu_U-hx5-ardYg-1">
          <mxGeometry x="490" y="210" width="140" height="30" as="geometry" />
        </mxCell>
        <mxCell id="pczT1-cu_U-hx5-ardYg-15" value="..." style="rounded=0;whiteSpace=wrap;html=1;fontSize=18;fontFamily=Ubuntu;fontSource=https%3A%2F%2Ffonts.googleapis.com%2Fcss%3Ffamily%3DUbuntu;" vertex="1" parent="pczT1-cu_U-hx5-ardYg-1">
          <mxGeometry x="490" y="320" width="140" height="40" as="geometry" />
        </mxCell>
      </root>
    </mxGraphModel>
  </diagram>
  <diagram name="Page-3" id="d-0QQxrhOqpmmsejDC1g">
    <mxGraphModel dx="879" dy="594" grid="1" gridSize="10" guides="1" tooltips="1" connect="1" arrows="1" fold="1" page="1" pageScale="1" pageWidth="1100" pageHeight="850" math="0" shadow="0">
      <root>
        <mxCell id="Tj4oQqAYCy1OyNEzwdPQ-0" />
        <mxCell id="Tj4oQqAYCy1OyNEzwdPQ-1" parent="Tj4oQqAYCy1OyNEzwdPQ-0" />
        <mxCell id="Tj4oQqAYCy1OyNEzwdPQ-2" value="" style="rounded=0;whiteSpace=wrap;html=1;" vertex="1" parent="Tj4oQqAYCy1OyNEzwdPQ-1">
          <mxGeometry x="80" y="50" width="320" height="530" as="geometry" />
        </mxCell>
        <mxCell id="Tj4oQqAYCy1OyNEzwdPQ-3" value="" style="rounded=0;whiteSpace=wrap;html=1;" vertex="1" parent="Tj4oQqAYCy1OyNEzwdPQ-1">
          <mxGeometry x="400" y="50" width="640" height="530" as="geometry" />
        </mxCell>
        <mxCell id="Tj4oQqAYCy1OyNEzwdPQ-4" value="main thread" style="shape=hexagon;perimeter=hexagonPerimeter2;whiteSpace=wrap;html=1;fixedSize=1;fontFamily=Ubuntu;fontSource=https%3A%2F%2Ffonts.googleapis.com%2Fcss%3Ffamily%3DUbuntu;fontSize=17;" vertex="1" parent="Tj4oQqAYCy1OyNEzwdPQ-1">
          <mxGeometry x="180" y="10" width="120" height="30" as="geometry" />
        </mxCell>
        <mxCell id="Tj4oQqAYCy1OyNEzwdPQ-5" value="STACK" style="text;html=1;strokeColor=none;fillColor=none;align=center;verticalAlign=middle;whiteSpace=wrap;rounded=0;fontFamily=Ubuntu;fontSource=https%3A%2F%2Ffonts.googleapis.com%2Fcss%3Ffamily%3DUbuntu;fontSize=16;fontStyle=1" vertex="1" parent="Tj4oQqAYCy1OyNEzwdPQ-1">
          <mxGeometry x="200" y="590" width="60" height="30" as="geometry" />
        </mxCell>
        <mxCell id="Tj4oQqAYCy1OyNEzwdPQ-6" value="HEAP" style="text;html=1;strokeColor=none;fillColor=none;align=center;verticalAlign=middle;whiteSpace=wrap;rounded=0;fontFamily=Ubuntu;fontSource=https%3A%2F%2Ffonts.googleapis.com%2Fcss%3Ffamily%3DUbuntu;fontSize=16;fontStyle=1" vertex="1" parent="Tj4oQqAYCy1OyNEzwdPQ-1">
          <mxGeometry x="510" y="590" width="60" height="30" as="geometry" />
        </mxCell>
        <mxCell id="Tj4oQqAYCy1OyNEzwdPQ-7" value="" style="rounded=0;whiteSpace=wrap;html=1;fillColor=#d5e8d4;strokeColor=#82b366;strokeWidth=10;" vertex="1" parent="Tj4oQqAYCy1OyNEzwdPQ-1">
          <mxGeometry x="80" y="500" width="320" height="80" as="geometry" />
        </mxCell>
        <mxCell id="Tj4oQqAYCy1OyNEzwdPQ-8" value="main()" style="text;html=1;strokeColor=#82b366;fillColor=#d5e8d4;align=center;verticalAlign=middle;whiteSpace=wrap;rounded=0;fontFamily=Ubuntu;fontSource=https%3A%2F%2Ffonts.googleapis.com%2Fcss%3Ffamily%3DUbuntu;fontSize=17;rotation=-90;" vertex="1" parent="Tj4oQqAYCy1OyNEzwdPQ-1">
          <mxGeometry x="6.88" y="526.88" width="86.25" height="30" as="geometry" />
        </mxCell>
        <mxCell id="Tj4oQqAYCy1OyNEzwdPQ-9" style="edgeStyle=orthogonalEdgeStyle;rounded=0;orthogonalLoop=1;jettySize=auto;html=1;entryX=0;entryY=0.5;entryDx=0;entryDy=0;" edge="1" parent="Tj4oQqAYCy1OyNEzwdPQ-1" source="Tj4oQqAYCy1OyNEzwdPQ-10" target="Tj4oQqAYCy1OyNEzwdPQ-14">
          <mxGeometry relative="1" as="geometry" />
        </mxCell>
        <mxCell id="Tj4oQqAYCy1OyNEzwdPQ-10" value="String[] args = 0xAF10" style="rounded=0;whiteSpace=wrap;html=1;fontFamily=Ubuntu;fontSource=https%3A%2F%2Ffonts.googleapis.com%2Fcss%3Ffamily%3DUbuntu;fontSize=17;" vertex="1" parent="Tj4oQqAYCy1OyNEzwdPQ-1">
          <mxGeometry x="80" y="500" width="320" height="40" as="geometry" />
        </mxCell>
        <mxCell id="Tj4oQqAYCy1OyNEzwdPQ-11" value="..." style="rounded=0;whiteSpace=wrap;html=1;fontFamily=Ubuntu;fontSource=https%3A%2F%2Ffonts.googleapis.com%2Fcss%3Ffamily%3DUbuntu;fontSize=17;" vertex="1" parent="Tj4oQqAYCy1OyNEzwdPQ-1">
          <mxGeometry x="80" y="540" width="320" height="40" as="geometry" />
        </mxCell>
        <mxCell id="Tj4oQqAYCy1OyNEzwdPQ-12" value="" style="rounded=0;whiteSpace=wrap;html=1;" vertex="1" parent="Tj4oQqAYCy1OyNEzwdPQ-1">
          <mxGeometry x="490" y="240" width="20" height="40" as="geometry" />
        </mxCell>
        <mxCell id="Tj4oQqAYCy1OyNEzwdPQ-13" value="int length = 0" style="rounded=0;whiteSpace=wrap;html=1;fontSize=18;fontFamily=Ubuntu;fontSource=https%3A%2F%2Ffonts.googleapis.com%2Fcss%3Ffamily%3DUbuntu;" vertex="1" parent="Tj4oQqAYCy1OyNEzwdPQ-1">
          <mxGeometry x="490" y="280" width="140" height="40" as="geometry" />
        </mxCell>
        <mxCell id="Tj4oQqAYCy1OyNEzwdPQ-14" value="0xAF10" style="rounded=0;whiteSpace=wrap;html=1;fontFamily=Ubuntu;fontSource=https%3A%2F%2Ffonts.googleapis.com%2Fcss%3Ffamily%3DUbuntu;fontSize=17;fillColor=#dae8fc;strokeColor=#6c8ebf;" vertex="1" parent="Tj4oQqAYCy1OyNEzwdPQ-1">
          <mxGeometry x="490" y="210" width="140" height="30" as="geometry" />
        </mxCell>
        <mxCell id="Tj4oQqAYCy1OyNEzwdPQ-15" value="..." style="rounded=0;whiteSpace=wrap;html=1;fontSize=18;fontFamily=Ubuntu;fontSource=https%3A%2F%2Ffonts.googleapis.com%2Fcss%3Ffamily%3DUbuntu;" vertex="1" parent="Tj4oQqAYCy1OyNEzwdPQ-1">
          <mxGeometry x="490" y="320" width="140" height="40" as="geometry" />
        </mxCell>
        <mxCell id="FxQj9UaaqDEJPN2yR2YD-0" value="" style="rounded=0;whiteSpace=wrap;html=1;fillColor=#e1d5e7;strokeColor=#9673a6;strokeWidth=10;" vertex="1" parent="Tj4oQqAYCy1OyNEzwdPQ-1">
          <mxGeometry x="80" y="370" width="320" height="120" as="geometry" />
        </mxCell>
        <mxCell id="FxQj9UaaqDEJPN2yR2YD-1" value="myMethod()" style="text;html=1;strokeColor=#9673a6;fillColor=#e1d5e7;align=center;verticalAlign=middle;whiteSpace=wrap;rounded=0;fontFamily=Ubuntu;fontSource=https%3A%2F%2Ffonts.googleapis.com%2Fcss%3Ffamily%3DUbuntu;fontSize=17;rotation=-90;" vertex="1" parent="Tj4oQqAYCy1OyNEzwdPQ-1">
          <mxGeometry x="-5.62" y="411.88" width="111.25" height="30" as="geometry" />
        </mxCell>
        <mxCell id="FxQj9UaaqDEJPN2yR2YD-2" value="int count = 1" style="rounded=0;whiteSpace=wrap;html=1;fontFamily=Ubuntu;fontSource=https%3A%2F%2Ffonts.googleapis.com%2Fcss%3Ffamily%3DUbuntu;fontSize=17;" vertex="1" parent="Tj4oQqAYCy1OyNEzwdPQ-1">
          <mxGeometry x="80" y="370" width="320" height="40" as="geometry" />
        </mxCell>
        <mxCell id="FxQj9UaaqDEJPN2yR2YD-3" value="int i = 0 -&amp;gt; 1" style="rounded=0;whiteSpace=wrap;html=1;fontFamily=Ubuntu;fontSource=https%3A%2F%2Ffonts.googleapis.com%2Fcss%3Ffamily%3DUbuntu;fontSize=17;" vertex="1" parent="Tj4oQqAYCy1OyNEzwdPQ-1">
          <mxGeometry x="80" y="410" width="320" height="40" as="geometry" />
        </mxCell>
        <mxCell id="FxQj9UaaqDEJPN2yR2YD-4" value="..." style="rounded=0;whiteSpace=wrap;html=1;fontFamily=Ubuntu;fontSource=https%3A%2F%2Ffonts.googleapis.com%2Fcss%3Ffamily%3DUbuntu;fontSize=17;" vertex="1" parent="Tj4oQqAYCy1OyNEzwdPQ-1">
          <mxGeometry x="80" y="450" width="320" height="40" as="geometry" />
        </mxCell>
      </root>
    </mxGraphModel>
  </diagram>
</mxfile>
